<svg id="visual" viewBox="0 0 900 450" width="900" height="450" xmlns="http://www.w3.org/2000/svg" xmlns:xlink="http://www.w3.org/1999/xlink" version="1.1"><rect x="0" y="0" width="900" height="450" fill="#252946"></rect><path d="M0 245L37.5 224.7C75 204.3 150 163.7 225 166.8C300 170 375 217 450 215.8C525 214.7 600 165.3 675 141.2C750 117 825 118 862.5 118.5L900 119L900 0L862.5 0C825 0 750 0 675 0C600 0 525 0 450 0C375 0 300 0 225 0C150 0 75 0 37.5 0L0 0Z" fill="#0ed481" stroke-linecap="round" stroke-linejoin="miter"></path></svg>