<svg xmlns="http://www.w3.org/2000/svg" version="1.1" xmlns:xlink="http://www.w3.org/1999/xlink" xmlns:svgjs="http://svgjs.dev/svgjs" width="1500" height="1500" viewBox="0 0 1500 1500"><rect width="1500" height="1500" fill="#000000"></rect><g transform="matrix(0.6666666666666666,0,0,0.6666666666666666,249.3939393939396,616.148934472649)"><svg viewBox="0 0 396 106" data-background-color="#0c1d36" preserveAspectRatio="xMidYMid meet" height="401" width="1500" xmlns="http://www.w3.org/2000/svg" xmlns:xlink="http://www.w3.org/1999/xlink"><g id="tight-bounds" transform="matrix(1,0,0,1,0.23999999999992383,0.07311575772774859)"><svg viewBox="0 0 395.5199999999999 105.85376848454449" height="105.85376848454449" width="395.5199999999999"><g><svg viewBox="0 0 547.701325370429 146.58234550576347" height="105.85376848454449" width="395.5199999999999"><g transform="matrix(1,0,0,1,0,46.77482949930658)"><svg viewBox="0 0 395.52 53.03268650715031" height="53.03268650715031" width="395.52"><g id="textblocktransform"><svg viewBox="0 0 395.52 53.03268650715031" height="53.03268650715031" width="395.52" id="textblock"><g><svg viewBox="0 0 395.52 23.71685332124235" height="23.71685332124235" width="395.52"><g transform="matrix(1,0,0,1,0,0)"><svg width="395.52" viewBox="-12.65 -26.45 441.07 26.45" height="23.71685332124235" data-palette-color="#f9cc0b"><g class="wordmark-text-0" data-fill-palette-color="primary" id="text-0"><path d="M31.9 0L22.75 0 20.4-8.65 20.1-8.65 18.6 0 10.2 0 14.8-26.45 23.25-26.45 21.8-18.35 22.05-18.35 27.2-26.45 36.35-26.45 27.95-13.5 31.9 0ZM8.95-2.4L8.55-0.15-12.65-2.4 8.95-2.4ZM10.65-12.05L10.25-9.8-10.95-12.05 10.65-12.05ZM11.5-16.85L11.1-14.6-10.1-16.85 11.5-16.85ZM12.35-21.65L11.95-19.4-9.25-21.65 12.35-21.65ZM13.15-26.45L12.8-24.2-8.4-26.45 13.15-26.45ZM9.8-7.25L9.4-5-11.8-7.25 9.8-7.25ZM67.5 0L59.1 0 60.65-9.15 55.05-9.15 53.45 0 45.05 0 49.65-26.45 58.1-26.45 56.45-17.3 62.1-17.3 63.7-26.45 72.15-26.45 67.5 0ZM43.8-2.4L43.4-0.15 22.2-2.4 43.8-2.4ZM45.5-12.05L45.1-9.8 23.9-12.05 45.5-12.05ZM46.35-16.85L45.95-14.6 24.75-16.85 46.35-16.85ZM47.2-21.65L46.8-19.4 25.6-21.65 47.2-21.65ZM48-26.45L47.65-24.2 26.45-26.45 48-26.45ZM44.65-7.25L44.25-5 23.05-7.25 44.65-7.25ZM108.5 0L99.75 0 99.55-4.05 93.25-4.05 91.7 0 83.05 0 94.15-26.45 106.55-26.45 108.5 0ZM95.9-11.2L99.55-11.2 99.55-18.8 98.85-18.8 95.9-11.2ZM82.4-2.4L81.45-0.2 60.95-2.4 82.4-2.4ZM84.45-7.25L83.5-5.05 63-7.25 84.45-7.25ZM86.45-12.05L85.55-9.85 65.05-12.05 86.45-12.05ZM88.5-16.85L87.55-14.65 67.1-16.85 88.5-16.85ZM90.5-21.65L89.6-19.45 69.15-21.65 90.5-21.65ZM92.5-26.45L91.6-24.3 71.2-26.45 92.5-26.45ZM139.09-7.35L137.79 0 121.54 0 126.14-26.45 134.94-26.45 131.59-7.35 139.09-7.35ZM120.29-2.4L119.89-0.15 98.69-2.4 120.29-2.4ZM121.99-12.05L121.59-9.8 100.39-12.05 121.99-12.05ZM122.84-16.85L122.44-14.6 101.24-16.85 122.84-16.85ZM123.69-21.65L123.29-19.4 102.09-21.65 123.69-21.65ZM124.49-26.45L124.14-24.2 102.94-26.45 124.49-26.45ZM121.14-7.25L120.74-5 99.54-7.25 121.14-7.25ZM168.49-15.55L167.64-10.75 160.19-10.75 159.59-7.35 168.84-7.35 167.54 0 149.89 0 154.49-26.45 172.09-26.45 169.74-18.95 161.59-18.95 160.99-15.55 168.49-15.55ZM148.64-2.4L148.24-0.15 127.04-2.4 148.64-2.4ZM150.34-12.05L149.94-9.8 128.74-12.05 150.34-12.05ZM151.19-16.85L150.79-14.6 129.59-16.85 151.19-16.85ZM152.04-21.65L151.64-19.4 130.44-21.65 152.04-21.65ZM152.84-26.45L152.49-24.2 131.29-26.45 152.84-26.45ZM149.49-7.25L149.09-5 127.89-7.25 149.49-7.25ZM187.29-26.45L198.54-26.45Q203.99-26.45 206.34-24.5 208.69-22.55 208.69-18.25L208.69-18.25Q208.69-16.2 208.14-13.2L208.14-13.2Q206.89-6.1 203.81-3.05 200.74 0 193.89 0L193.89 0 182.69 0 187.29-26.45ZM197.34-19.15L197.34-19.15 194.44-19.15 192.34-7.15 195.24-7.15Q196.69-7.15 197.46-7.53 198.24-7.9 198.44-9.05L198.44-9.05 199.89-17.3Q199.94-17.5 199.94-18.1L199.94-18.1Q199.94-19.15 197.34-19.15ZM181.44-2.4L181.04-0.15 159.84-2.4 181.44-2.4ZM183.14-12.05L182.74-9.8 161.54-12.05 183.14-12.05ZM183.99-16.85L183.59-14.6 162.39-16.85 183.99-16.85ZM184.84-21.65L184.44-19.4 163.24-21.65 184.84-21.65ZM185.64-26.45L185.29-24.2 164.09-26.45 185.64-26.45ZM182.29-7.25L181.89-5 160.69-7.25 182.29-7.25ZM240.04-15.55L239.19-10.75 231.74-10.75 231.14-7.35 240.39-7.35 239.09 0 221.44 0 226.04-26.45 243.64-26.45 241.29-18.95 233.14-18.95 232.54-15.55 240.04-15.55ZM220.19-2.4L219.79-0.15 198.59-2.4 220.19-2.4ZM221.89-12.05L221.49-9.8 200.29-12.05 221.89-12.05ZM222.74-16.85L222.34-14.6 201.14-16.85 222.74-16.85ZM223.59-21.65L223.19-19.4 201.99-21.65 223.59-21.65ZM224.39-26.45L224.04-24.2 202.84-26.45 224.39-26.45ZM221.04-7.25L220.64-5 199.44-7.25 221.04-7.25ZM271.78-7.35L270.48 0 254.23 0 258.83-26.45 267.63-26.45 264.28-7.35 271.78-7.35ZM252.98-2.4L252.58-0.15 231.38-2.4 252.98-2.4ZM254.68-12.05L254.28-9.8 233.08-12.05 254.68-12.05ZM255.53-16.85L255.13-14.6 233.93-16.85 255.53-16.85ZM256.38-21.65L255.98-19.4 234.78-21.65 256.38-21.65ZM257.18-26.45L256.83-24.2 235.63-26.45 257.18-26.45ZM253.83-7.25L253.43-5 232.23-7.25 253.83-7.25ZM300.13-7.35L298.83 0 282.58 0 287.18-26.45 295.98-26.45 292.63-7.35 300.13-7.35ZM281.33-2.4L280.93-0.15 259.73-2.4 281.33-2.4ZM283.03-12.05L282.63-9.8 261.43-12.05 283.03-12.05ZM283.88-16.85L283.48-14.6 262.28-16.85 283.88-16.85ZM284.73-21.65L284.33-19.4 263.13-21.65 284.73-21.65ZM285.53-26.45L285.18-24.2 263.98-26.45 285.53-26.45ZM282.18-7.25L281.78-5 260.58-7.25 282.18-7.25ZM319.68 0L310.93 0 315.53-26.45 324.33-26.45 319.68 0ZM309.68-2.4L309.28-0.15 288.08-2.4 309.68-2.4ZM311.38-12.05L310.98-9.8 289.78-12.05 311.38-12.05ZM312.23-16.85L311.83-14.6 290.63-16.85 312.23-16.85ZM313.08-21.65L312.68-19.4 291.48-21.65 313.08-21.65ZM313.88-26.45L313.53-24.2 292.33-26.45 313.88-26.45ZM310.53-7.25L310.13-5 288.93-7.25 310.53-7.25ZM357.88-26.45L356.53-18.95 351.13-18.95 347.83 0 339.03 0 342.33-18.95 336.78-18.95 338.13-26.45 357.88-26.45ZM337.93-2.4L337.53-0.15 316.33-2.4 337.93-2.4ZM339.63-12.05L339.23-9.8 318.03-12.05 339.63-12.05ZM340.48-16.85L340.08-14.6 318.88-16.85 340.48-16.85ZM335.68-21.65L335.28-19.4 314.08-21.65 335.68-21.65ZM336.48-26.45L336.13-24.2 314.93-26.45 336.48-26.45ZM338.78-7.25L338.38-5 317.18-7.25 338.78-7.25ZM388.97 0L380.57 0 382.12-9.15 376.52-9.15 374.92 0 366.52 0 371.12-26.45 379.57-26.45 377.92-17.3 383.57-17.3 385.17-26.45 393.62-26.45 388.97 0ZM365.27-2.4L364.87-0.15 343.67-2.4 365.27-2.4ZM366.97-12.05L366.57-9.8 345.37-12.05 366.97-12.05ZM367.82-16.85L367.42-14.6 346.22-16.85 367.82-16.85ZM368.67-21.65L368.27-19.4 347.07-21.65 368.67-21.65ZM369.47-26.45L369.12-24.2 347.92-26.45 369.47-26.45ZM366.12-7.25L365.72-5 344.52-7.25 366.12-7.25ZM407.02-2.4L406.62-0.15 385.42-2.4 407.02-2.4ZM407.87-7.25L407.47-5 386.27-7.25 407.87-7.25ZM405.02-21.65L405.47-19.4 384.27-21.65 405.02-21.65ZM404.02-26.45L404.47-24.2 383.27-26.45 404.02-26.45ZM406.02-16.85L406.47-14.6 385.27-16.85 406.02-16.85ZM406.97-12.05L407.47-9.8 386.27-12.05 406.97-12.05ZM405.52-26.45L414.12-26.45 415.22-16.85 415.52-16.85 419.67-26.45 428.42-26.45 417.82-7.55 416.57 0 408.12 0 409.42-7.55 405.52-26.45Z" fill="#ffffff" data-fill-palette-color="primary"></path></g></svg></g></svg></g><g transform="matrix(1,0,0,1,0,29.31583318590796)"><svg viewBox="0 0 395.52 23.71685332124235" height="23.71685332124235" width="395.52"><g transform="matrix(1,0,0,1,0,0)"><svg width="395.52" viewBox="0.45 -34.65 577.8499999999999 34.65" height="23.71685332124235" data-palette-color="#f9cc0b"><path d="M8.15 0L0.45 0 5.3-34.65 13.05-34.65 8.15 0ZM25.25 0L16.9 0 11-18.5 21.55-34.65 29.35-34.65 18.8-18.6 25.25 0ZM560.35-34.65L578.3-34.65 576.6-29.05 567.3-29.05 566.05-20.35 574.35-20.35 573.55-14.85 565.3-14.85 564-5.7 574.2-5.7 573.35 0 555.5 0 560.35-34.65Z" opacity="1" transform="matrix(1,0,0,1,0,0)" fill="#ffffff" class="slogan-text-1" data-fill-palette-color="secondary" id="text-1"></path></svg></g></svg></g></svg></g></svg></g><g transform="matrix(1,0,0,1,401.1189798646656,0)"><svg viewBox="0 0 146.58234550576347 146.58234550576347" height="146.58234550576347" width="146.58234550576347"><g><svg xmlns="http://www.w3.org/2000/svg" xmlns:xlink="http://www.w3.org/1999/xlink" version="1.0" x="0" y="0" viewBox="10 10 80 80" enable-background="new 0 0 100 100" xml:space="preserve" height="146.58234550576347" width="146.58234550576347" class="icon-icon-0" data-fill-palette-color="accent" id="icon-0"><path fill="none" stroke="#F9F9F9" stroke-linecap="round" stroke-linejoin="round" stroke-miterlimit="10" d="M78.33 56.667l1.945 15.555L78.33 56.667z"></path><path fill="none" stroke="#F9F9F9" stroke-linecap="round" stroke-linejoin="round" stroke-miterlimit="10" d="M75.689 22.862v-3.157C75.021 14.236 70.37 10 64.722 10c-5.647 0-10.298 4.235-10.968 9.704v3.157c-1.433 0.509-2.461 1.859-2.461 3.461 0 3.145 1.596 5.689 3.582 5.778 1.828 5.631 5.549 9.496 9.847 9.496 4.297 0 8.016-3.864 9.846-9.496 1.986-0.089 3.583-2.633 3.583-5.778C78.15 24.721 77.118 23.371 75.689 22.862z"></path><path fill="none" stroke="#F9F9F9" stroke-linecap="round" stroke-linejoin="round" stroke-miterlimit="10" d="M63.359 24.58h-6.806v1.945c0 1.071 0.877 1.947 1.946 1.947h2.917c1.069 0 1.942-0.876 1.942-1.947V24.58z"></path><path fill="none" stroke="#F9F9F9" stroke-linecap="round" stroke-linejoin="round" stroke-miterlimit="10" d="M56.554 24.58l-2.8-1.718L56.554 24.58z"></path><path fill="none" stroke="#F9F9F9" stroke-linecap="round" stroke-linejoin="round" stroke-miterlimit="10" d="M66.081 24.58h6.806v1.945c0 1.071-0.875 1.947-1.944 1.947h-2.916c-1.071 0-1.945-0.876-1.945-1.947V24.58z"></path><path fill="none" stroke="#F9F9F9" stroke-linecap="round" stroke-linejoin="round" stroke-miterlimit="10" d="M72.889 24.58l2.801-1.718L72.889 24.58z"></path><path fill="none" stroke="#F9F9F9" stroke-linecap="round" stroke-linejoin="round" stroke-miterlimit="10" d="M63.359 24.58h2.722H63.359z"></path><path fill="none" stroke="#F9F9F9" stroke-linecap="round" stroke-linejoin="round" stroke-miterlimit="10" d="M62.292 35.745c1.342 1.341 3.519 1.341 4.86 0C65.811 37.086 63.634 37.086 62.292 35.745z"></path><path fill="none" stroke="#F9F9F9" stroke-linecap="round" stroke-linejoin="round" stroke-miterlimit="10" d="M75.689 22.862c-3.038 0-5.788-1.231-7.78-3.221l0 0c-2.147-2.147-4.961-3.222-7.777-3.222-3.522 0-6.378 2.885-6.378 6.443v-3.157C54.424 14.236 59.074 10 64.722 10c5.648 0 10.299 4.235 10.968 9.704V22.862z"></path><path fill="none" stroke="#F9F9F9" stroke-linecap="round" stroke-linejoin="round" stroke-miterlimit="10" d="M64.722 48.889c3.219 0 6.066-1.571 7.834-3.981-0.535-0.258-1.031-0.585-1.446-1.002-0.941-0.937-1.52-2.235-1.52-3.668v-0.429c-1.469 1.139-3.119 1.788-4.868 1.788-1.748 0-3.398-0.649-4.866-1.788v0.429c0 1.433-0.583 2.732-1.521 3.668-0.417 0.417-0.911 0.744-1.449 0.999C58.656 47.317 61.503 48.889 64.722 48.889z"></path><path fill="none" stroke="#F9F9F9" stroke-linecap="round" stroke-linejoin="round" stroke-miterlimit="10" d="M72.792 45.033c-0.084-0.034-0.155-0.089-0.236-0.125-1.768 2.41-4.615 3.981-7.834 3.981s-6.065-1.571-7.836-3.984c-0.078 0.04-0.151 0.092-0.236 0.128l-3.415 1.415c2.415 3.8 6.651 6.33 11.486 6.33 4.837 0 9.072-2.529 11.489-6.33L72.792 45.033z"></path><path fill="none" stroke="#F9F9F9" stroke-linecap="round" stroke-linejoin="round" stroke-miterlimit="10" d="M58.889 85.556H10v2.224C10 89.002 11.001 90 12.223 90h44.444c1.222 0 2.222-0.998 2.222-2.221V85.556z"></path><path fill="none" stroke="#F9F9F9" stroke-linecap="round" stroke-linejoin="round" stroke-miterlimit="10" d="M58.889 82.219c0 1.833-1.5 3.333-3.333 3.333H13.335c-1.834 0-3.335-1.5-3.335-3.333V57.774c0-1.833 1.5-3.335 3.335-3.335h42.221c1.833 0 3.333 1.502 3.333 3.335V82.219z"></path><path fill="none" stroke="#F9F9F9" stroke-linecap="round" stroke-linejoin="round" stroke-miterlimit="10" d="M55.556 54.439c1.833 0 3.333 1.502 3.333 3.335v14.447H90l-0.004-14.826c0-2.469-1-4.704-2.614-6.321L76.21 46.448c-2.417 3.8-6.652 6.33-11.489 6.33-4.835 0-9.071-2.529-11.486-6.33l-11.172 4.626c-0.938 0.938-1.66 2.089-2.107 3.365H55.556z"></path><circle fill="none" stroke="#F9F9F9" stroke-linecap="round" stroke-linejoin="round" stroke-miterlimit="10" cx="34.444" cy="70" r="3.3"></circle></svg></g></svg></g></svg></g><defs></defs></svg><rect width="395.5199999999999" height="105.85376848454449" fill="none" stroke="none" visibility="hidden"></rect></g></svg></g></svg>