<svg xmlns="http://www.w3.org/2000/svg" width="24" height="26" viewBox="0 0 24 26" fill="none"><mask id="mask0_427_34" maskUnits="userSpaceOnUse" x="16" y="3" width="8" height="8" style="mask-type: luminance;"><path d="M24 3H16V11H24V3Z" fill="white"></path></mask><g mask="url(#mask0_427_34)"><path d="M23.8012 7.00309L21.0136 8.01539L20.0012 10.8031L18.9889 8.01539L16.2012 7.00309L18.9889 5.9908L20.0012 3.20309L21.0136 5.9908L23.8012 7.00309Z" fill="url(#paint0_linear_427_34)"></path></g><mask id="mask1_427_34" maskUnits="userSpaceOnUse" x="0" y="10" width="6" height="6" style="mask-type: luminance;"><path d="M6 10H0V16H6V10Z" fill="white"></path></mask><g mask="url(#mask1_427_34)"><path d="M5.8494 13.0023L3.7587 13.7616L2.9994 15.8523L2.2402 13.7616L0.149399 13.0023L2.2402 12.2431L2.9994 10.1523L3.7587 12.2431L5.8494 13.0023Z" fill="url(#paint1_linear_427_34)"></path></g><mask id="mask2_427_34" maskUnits="userSpaceOnUse" x="16" y="20" width="4" height="4" style="mask-type: luminance;"><path d="M20 20H16V24H20V20Z" fill="white"></path></mask><g mask="url(#mask2_427_34)"><path d="M19.8996 22.0016L18.5058 22.5077L17.9996 23.9016L17.4934 22.5077L16.0996 22.0016L17.4934 21.4954L17.9996 20.1016L18.5058 21.4954L19.8996 22.0016Z" fill="url(#paint2_linear_427_34)"></path></g><g filter="url(#filter0_d_427_34)"><path fill-rule="evenodd" clip-rule="evenodd" d="M11.8671 20.3327C14.8098 20.2537 16.4674 18.0538 16.368 15.5257C15.9553 11.8147 11.5502 10.6201 13.3135 5.666C9.7712 8.7188 7.228 12.6272 7.3363 15.408C7.3847 18.1053 8.9455 20.3327 11.8671 20.3327ZM14.5512 16.5696C15.0045 16.5696 15.3306 16.2001 15.3719 15.7489C15.4799 15.431 15.3719 13.9738 14.2947 13.0395C14.4695 14.2529 13.6329 15.261 13.7305 15.7489C13.7305 16.2022 14.0979 16.5696 14.5512 16.5696Z" fill="#1DA1F2"></path></g><defs><filter id="filter0_d_427_34" x="2.47583" y="0.80886" width="18.7535" height="24.381" filterUnits="userSpaceOnUse" color-interpolation-filters="sRGB"><feFlood flood-opacity="0" result="BackgroundImageFix"></feFlood><feColorMatrix in="SourceAlpha" type="matrix" values="0 0 0 0 0 0 0 0 0 0 0 0 0 0 0 0 0 0 127 0" result="hardAlpha"></feColorMatrix><feOffset></feOffset><feGaussianBlur stdDeviation="2.42857"></feGaussianBlur><feColorMatrix type="matrix" values="0 0 0 0 0 0 0 0 0 0 0 0 0 0 0 0 0 0 0.12 0"></feColorMatrix><feBlend mode="normal" in2="BackgroundImageFix" result="effect1_dropShadow_427_34"></feBlend><feBlend mode="normal" in="SourceGraphic" in2="effect1_dropShadow_427_34" result="shape"></feBlend></filter><linearGradient id="paint0_linear_427_34" x1="20.0012" y1="3.20309" x2="20.0012" y2="10.8031" gradientUnits="userSpaceOnUse"><stop stop-color="#1DA1F2"></stop><stop offset="1" stop-color="#6CD2FF"></stop></linearGradient><linearGradient id="paint1_linear_427_34" x1="2.9994" y1="10.1523" x2="2.9994" y2="15.8523" gradientUnits="userSpaceOnUse"><stop stop-color="#1DA1F2"></stop><stop offset="1" stop-color="#6CD2FF"></stop></linearGradient><linearGradient id="paint2_linear_427_34" x1="17.9996" y1="20.1016" x2="17.9996" y2="23.9016" gradientUnits="userSpaceOnUse"><stop stop-color="#1DA1F2"></stop><stop offset="1" stop-color="#6CD2FF"></stop></linearGradient></defs></svg>