<svg xmlns="http://www.w3.org/2000/svg" version="1.1" xmlns:xlink="http://www.w3.org/1999/xlink" xmlns:svgjs="http://svgjs.dev/svgjs" width="1500" height="1500" viewBox="0 0 1500 1500"><rect width="1500" height="1500" fill="#000000"></rect><g transform="matrix(0.6666666666666666,0,0,0.6666666666666666,249.39393939393938,438.58569500674776)"><svg viewBox="0 0 396 247" data-background-color="#0c1d36" preserveAspectRatio="xMidYMid meet" height="935" width="1500" xmlns="http://www.w3.org/2000/svg" xmlns:xlink="http://www.w3.org/1999/xlink"><g id="tight-bounds" transform="matrix(1,0,0,1,0.2400000000000091,-0.09999999999999432)"><svg viewBox="0 0 395.52 247.2" height="247.2" width="395.52"><g><svg></svg></g><g><svg viewBox="0 0 395.52 247.2" height="247.2" width="395.52"><g transform="matrix(1,0,0,1,75.54432,80.02624073017684)"><svg viewBox="0 0 244.43135999999998 87.14751853964631" height="87.14751853964631" width="244.43135999999998"><g><svg viewBox="0 0 244.43135999999998 87.14751853964631" height="87.14751853964631" width="244.43135999999998"><g><svg viewBox="0 0 244.43135999999998 87.14751853964631" height="87.14751853964631" width="244.43135999999998"><g id="textblocktransform"><svg viewBox="0 0 244.43135999999998 87.14751853964631" height="87.14751853964631" width="244.43135999999998" id="textblock"><g><svg viewBox="0 0 244.43135999999998 87.14751853964631" height="87.14751853964631" width="244.43135999999998"><g transform="matrix(1,0,0,1,0,0)"><svg width="244.43135999999998" viewBox="-12.5 -31.25 87.65 31.25" height="87.14751853964631" data-palette-color="#f39422"><g class="wordmark-text-0" data-fill-palette-color="primary" id="text-0"><path d="M22.4-12.65L22.4-12.65 22.45-13.6 22.05-13.6 19.7 0 10.2 0 15.7-31.25 25.2-31.25 22.95-18.5 23.35-18.5Q23.75-20.1 24.25-20.9L24.25-20.9 30.55-31.25 40.8-31.25 31-15.9 35.55 0 25.3 0 22.55-11.2Q22.4-11.7 22.4-12.65ZM9.1-2.4L8.7-0.15-12.5-2.4 9.1-2.4ZM10.8-12.05L10.4-9.8-10.8-12.05 10.8-12.05ZM11.65-16.85L11.25-14.6-9.95-16.85 11.65-16.85ZM12.5-21.65L12.1-19.4-9.1-21.65 12.5-21.65ZM13.3-26.45L12.95-24.2-8.25-26.45 13.3-26.45ZM9.95-7.25L9.55-5-11.65-7.25 9.95-7.25ZM14.15-31.25L13.75-29-7.4-31.25 14.15-31.25ZM71.1-19.05L69.8-11.8 60.3-11.8 59.65-8 71.3-8 69.9 0 48.75 0 54.25-31.25 75.15-31.25 72.55-23.25 62.3-23.25 61.6-19.05 71.1-19.05ZM47.65-2.4L47.25-0.15 26.05-2.4 47.65-2.4ZM49.35-12.05L48.95-9.8 27.75-12.05 49.35-12.05ZM50.2-16.85L49.8-14.6 28.6-16.85 50.2-16.85ZM51.05-21.65L50.65-19.4 29.45-21.65 51.05-21.65ZM51.85-26.45L51.5-24.2 30.3-26.45 51.85-26.45ZM48.5-7.25L48.1-5 26.9-7.25 48.5-7.25ZM52.7-31.25L52.3-29 31.15-31.25 52.7-31.25Z" fill="#ffffff" data-fill-palette-color="primary"></path></g></svg></g></svg></g></svg></g></svg></g></svg></g></svg></g><g><path d="M245.816 0c68.262 0 123.6 55.338 123.6 123.6 0 68.262-55.338 123.6-123.6 123.6-48.955 0-91.263-28.461-111.279-69.74h4.385c19.709 39.039 60.175 65.81 106.894 65.81 66.092 0 119.67-53.578 119.67-119.67 0-66.092-53.578-119.67-119.67-119.67-46.719 0-87.185 26.771-106.894 65.81h-4.385c20.016-41.278 62.324-69.74 111.279-69.74z" fill="#ffffff" stroke="transparent" data-fill-palette-color="tertiary"></path></g></svg></g><defs></defs></svg><rect width="395.52" height="247.2" fill="none" stroke="none" visibility="hidden"></rect></g></svg></g></svg>