<svg width="482" height="472" xmlns="http://www.w3.org/2000/svg" xmlns:xlink="http://www.w3.org/1999/xlink" overflow="hidden"><defs><clipPath id="clip0"><rect x="304" y="119" width="482" height="472"/></clipPath></defs><g clip-path="url(#clip0)" transform="translate(-304 -119)"><path d="M457.558 488.635 501.795 488.635 546.032 488.635 590.269 488.635 634.506 488.635 634.506 492.639 590.269 492.639 546.032 492.639 501.795 492.639 457.558 492.639ZM616.991 434.586 600.116 463.012 621.79 463.012ZM490.028 434.586 473.153 463.012 494.827 463.012ZM615.232 426.579 621.31 426.579C622.057 426.579 622.59 426.739 622.91 427.059 623.23 427.38 623.416 427.807 623.47 428.34L632.267 480.148C632.427 480.948 632.347 481.562 632.027 481.989 631.707 482.416 631.281 482.63 630.747 482.63L626.669 482.63C626.082 482.63 625.629 482.483 625.309 482.19 624.989 481.896 624.776 481.456 624.669 480.868L622.59 469.898 596.357 469.898 589.479 481.269C589.266 481.642 588.96 481.963 588.56 482.23 588.16 482.497 587.693 482.63 587.16 482.63L582.841 482.63C582.148 482.63 581.682 482.35 581.442 481.789 581.202 481.229 581.242 480.682 581.562 480.148L612.353 428.34C612.673 427.807 613.059 427.38 613.512 427.059 613.966 426.739 614.539 426.579 615.232 426.579ZM488.269 426.579 494.347 426.579C495.094 426.579 495.627 426.739 495.947 427.059 496.267 427.38 496.453 427.807 496.507 428.34L505.304 480.148C505.464 480.948 505.384 481.562 505.064 481.989 504.744 482.416 504.318 482.63 503.784 482.63L499.706 482.63C499.119 482.63 498.666 482.483 498.346 482.19 498.026 481.896 497.813 481.456 497.706 480.868L495.627 469.898 469.394 469.898 462.516 481.269C462.303 481.642 461.997 481.963 461.597 482.23 461.197 482.497 460.73 482.63 460.197 482.63L455.878 482.63C455.185 482.63 454.719 482.35 454.479 481.789 454.239 481.229 454.279 480.682 454.599 480.148L485.39 428.34C485.71 427.807 486.096 427.38 486.549 427.059 487.003 426.739 487.576 426.579 488.269 426.579ZM554.25 425.778C557.502 425.778 560.301 426.218 562.647 427.099 564.993 427.98 566.913 429.154 568.406 430.622 569.898 432.09 570.925 433.665 571.485 435.347 572.045 437.028 572.191 438.67 571.925 440.271 571.871 440.645 571.711 441.005 571.445 441.352 571.178 441.699 570.752 441.873 570.165 441.873L565.606 441.873C565.286 441.873 564.94 441.766 564.567 441.552 564.193 441.339 563.98 440.939 563.927 440.351 564.087 438.163 563.234 436.321 561.368 434.826 559.502 433.332 557.022 432.584 553.93 432.584 550.517 432.584 547.532 433.252 544.972 434.586 542.413 435.921 540.814 438.003 540.174 440.832 539.801 442.647 539.987 444.155 540.734 445.356 541.48 446.557 542.84 447.611 544.812 448.519 546.785 449.426 549.451 450.387 552.81 451.401 556.809 452.576 560.008 453.884 562.407 455.325 564.807 456.766 566.459 458.515 567.366 460.57 568.272 462.625 568.406 465.174 567.766 468.217 566.699 473.235 564.1 477.025 559.968 479.587 555.836 482.15 550.491 483.431 543.933 483.431 539.294 483.431 535.509 482.737 532.576 481.349 529.644 479.961 527.524 478.119 526.218 475.824 524.912 473.528 524.445 471.099 524.818 468.537 524.872 468.11 525.058 467.723 525.378 467.376 525.698 467.029 526.098 466.856 526.578 466.856L530.977 466.856C531.563 466.856 531.976 467.016 532.216 467.336 532.456 467.656 532.629 468.03 532.736 468.457 532.736 469.738 533.123 471.006 533.896 472.261 534.669 473.515 535.895 474.556 537.575 475.383 539.254 476.211 541.48 476.625 544.253 476.625 548.838 476.625 552.437 475.81 555.049 474.182 557.662 472.554 559.262 470.379 559.848 467.656 560.275 465.788 560.035 464.28 559.128 463.132 558.222 461.984 556.689 460.957 554.53 460.049 552.37 459.142 549.531 458.154 546.012 457.087 542.387 455.966 539.454 454.684 537.215 453.243 534.975 451.802 533.456 450.027 532.656 447.918 531.856 445.81 531.776 443.234 532.416 440.191 533.376 435.867 535.722 432.384 539.454 429.742 543.186 427.099 548.118 425.778 554.25 425.778ZM399.848 407.32 442.931 407.32 367.923 554.512 461.347 554.512 461.347 590.5 306.5 590.5ZM545.5 121.5 627.139 281.703 586.834 281.703 546.506 192.314 488.895 320.013 604.118 320.013 604.118 320.012 646.661 320.012 784.5 590.5 629.653 590.5 629.653 555.093 723.077 555.093 628.251 369.011 627.245 370.985 627.245 367.85 419.962 367.85Z" stroke="#2F528F" stroke-width="1.33333" stroke-miterlimit="8" fill="#1565C0" fill-rule="evenodd"/></g></svg>