<svg xmlns="http://www.w3.org/2000/svg" width="16" height="16" viewBox="0 0 16 16" fill="none"><path fill-rule="evenodd" clip-rule="evenodd" d="M5.45139 0.667969C4.64931 0.667969 4 1.31727 4 2.11936C4 2.92144 4.64931 3.57075 5.45139 3.57075C6.25347 3.57075 6.90278 2.92144 6.90278 2.11936C6.90278 1.31727 6.25347 0.667969 5.45139 0.667969ZM4 8.00868C4 7.2066 4.64931 6.55729 5.45139 6.55729C6.25347 6.55729 6.90278 7.2066 6.90278 8.00868C6.90278 8.81076 6.25347 9.46007 5.45139 9.46007C4.64931 9.46007 4 8.81076 4 8.00868ZM4 13.8837C4 13.0816 4.64931 12.4323 5.45139 12.4323C6.25347 12.4323 6.90278 13.0816 6.90278 13.8837C6.90278 14.6858 6.25347 15.3351 5.45139 15.3351C4.64931 15.3351 4 14.6858 4 13.8837Z" fill="#666666"></path><path fill-rule="evenodd" clip-rule="evenodd" d="M10.7854 0.667969C9.98329 0.667969 9.33398 1.31727 9.33398 2.11936C9.33398 2.92144 9.98329 3.57075 10.7854 3.57075C11.5875 3.57075 12.2368 2.92144 12.2368 2.11936C12.2368 1.31727 11.5875 0.667969 10.7854 0.667969ZM9.33398 8.00868C9.33398 7.2066 9.98329 6.55729 10.7854 6.55729C11.5875 6.55729 12.2368 7.2066 12.2368 8.00868C12.2368 8.81076 11.5875 9.46007 10.7854 9.46007C9.98329 9.46007 9.33398 8.81076 9.33398 8.00868ZM9.33398 13.8837C9.33398 13.0816 9.98329 12.4323 10.7854 12.4323C11.5875 12.4323 12.2368 13.0816 12.2368 13.8837C12.2368 14.6858 11.5875 15.3351 10.7854 15.3351C9.98329 15.3351 9.33398 14.6858 9.33398 13.8837Z" fill="#666666"></path></svg>